PathFileType	4	(X/Y/Z)	C:/Users/beibeiliu/ov580/test_trc/User2\sequence.3_training_dense_right.trc
DataRate	CameraRate	NumFrames	NumMarkers	Units	OrigDataRate	OrigDataStartFrame	OrigNumFrames
120	120	18	19	mm	120	26	75
Frame#	Time	ThumbCMC			ThumbMCP			ThumbIP			ThumbTip			IndexMCP			IndexPIP			IndexTip			MiddleMCP			MiddlePIP			MiddleTip			RingMCP			RingPIP			RingTip			PinkyMCP			PinkyPIP			PinkyTip			BackHand1			BackHand2			BackHand3	
		X0	Y0	Z0	X1	Y1	Z1	X2	Y2	Z2	X3	Y3	Z3	X4	Y4	Z4	X5	Y5	Z5	X6	Y6	Z6	X7	Y7	Z7	X8	Y8	Z8	X9	Y9	Z9	X10	Y10	Z10	X11	Y11	Z11	X12	Y12	Z12	X13	Y13	Z13	X14	Y14	Z14	X15	Y15	Z15	X16	Y16	Z16	X17	Y17	Z17	X18	Y18	Z18	
25	0.208333	181.674	23.8325	-51.1823	162.074	32.7565	-79.5231	142.196	28.5151	-104.89	122.545	6.48542	-115.244	170.651	-15.4253	-117.081	143.578	-0.0581057	-126.605	143.882	14.8585	-93.2669	146.485	-28.9713	-114.436	121.519	-5.72506	-112.803	139.729	8.58605	-74.2233	126.05	-32.2476	-100.278	111.316	-4.3954	-91.5436	131.315	0.90304	-65.7741	114.843	-38.9453	-83.9053	104.187	-9.23442	-75.2824	126.25	-9.07401	-49.1807	164.308	-48.305	-45.9337	172.528	-40.353	-14.5502	192.427	-19.2542	-41.2216	
26	0.216667	176.06	24.3801	-46.8239	159.089	31.8476	-76.5237	142.402	26.545	-107.914	129.408	0.722834	-121.721	182.89	-8.08009	-116.128	153.407	-1.35595	-128.093	148.763	16.4967	-94.9937	166.019	-26.7597	-114.667	132.336	-8.84269	-113.253	139.902	0.892293	-76.8332	143.205	-33.1425	-107.621	122.97	-11.5004	-97.208	137.878	-7.59904	-63.8312	130.333	-46.0927	-90.8415	117.671	-17.6204	-81.3655	134.103	-16.4865	-55.1965	178.448	-44.6176	-51.3285	178.602	-39.7986	-16.3705	198.69	-12.5556	-37.6313	
27	0.225	171.622	34.2415	-40.8518	154.303	40.1564	-74.7381	143.603	27.113	-111.386	136.456	4.07283	-124.795	189.7	4.23695	-115.241	161.657	10.0931	-127.118	150.319	20.4219	-91.9694	178.107	-15.2271	-115.409	142.348	-6.68412	-116.277	146.24	6.38982	-76.6645	160.33	-31.8688	-106.526	133.479	-13.0465	-101.482	142.511	-9.23957	-65.1785	149.573	-44.0571	-94.9541	123.256	-25.6649	-84.7291	142.726	-16.5076	-55.6653	191.029	-37.2182	-52.6141	188.595	-30.2238	-13.4487	201.414	-1.31577	-38.2726	
28	0.233333	162.304	38.5992	-38.9338	148.042	43.8531	-73.9815	141.063	34.7007	-105.228	142.929	11.3172	-124.859	191.552	26.9981	-112.958	163.14	24.7601	-123.942	150.08	25.9624	-86.6864	185.984	2.39978	-114.44	151.541	4.07894	-118.12	145.497	8.98416	-76.6765	170.31	-17.4353	-109.197	140.711	-12.016	-102.681	146.122	-4.84781	-67.8583	164.652	-34.0325	-97.1752	135.626	-21.6921	-86.9778	144.072	-17.3694	-56.4333	200.694	-20.4392	-49.2953	192.358	-22.1167	-13.2778	199.285	16.2502	-34.2363	
29	0.241667	150.283	39.5803	-32.0899	134.748	45.3872	-66.5807	132.776	40.0925	-105.228	145.76	17.0831	-122.069	184.448	40.6602	-107.286	159.388	33.7659	-119.229	144.863	27.055	-86.7578	186.558	17.6883	-111.765	152.232	9.45633	-114.475	143.603	14.3259	-74.8204	178.466	-5.49025	-106.03	145.861	-6.17566	-101.602	148.984	0.353773	-65.6675	176.085	-22.5239	-96.5059	142.749	-20.1627	-87.0274	148.071	-16.5016	-56.566	204.134	-5.34519	-48.2468	195.486	-12.8724	-12.0448	189.146	28.3353	-25.4901	
30	0.25	134.795	38.1357	-29.4281	120.775	42.2481	-63.5863	120.822	38.8931	-97.9506	136.078	25.3907	-117.984	167.939	59.6331	-96.4682	148.912	40.2283	-112.407	136.253	26.7608	-83.5005	178.976	34.9329	-104.474	148.316	17.1564	-112.352	139.789	11.4378	-73.9675	177.302	9.70901	-104.991	147.39	0.371884	-102.027	149.742	-0.516462	-63.1102	179.448	-6.78268	-95.3896	148.591	-12.6093	-88.2836	150.046	-11.3808	-58.1786	200.101	9.59757	-43.3568	191.546	-0.439178	-11.8059	176.693	35.5136	-19.2586	
31	0.258333	117.81	26.3417	-23.6231	105.127	31.701	-60.917	106.19	34.0868	-93.7287	126.649	29.7921	-117.253	146.969	66.0455	-85.1856	130.65	45.5446	-106.684	126.642	23.4866	-78.2566	163.247	49.9496	-98.0856	142.615	23.6393	-110.325	130.79	10.137	-71.589	168.236	26.1287	-100.039	146.809	4.16396	-100.143	142.093	2.53043	-65.9603	179.245	7.52325	-92.5002	151.573	-8.37252	-89.8831	149.208	-8.03641	-57.5955	187.239	26.6441	-37.1874	182.455	10.3068	-3.68577	159.656	36.8068	-13.6558	
32	0.266667	101.215	13.1172	-17.8504	89.0465	18.9666	-57.232	89.5042	26.1164	-92.0575	112.39	28.0745	-112.631	120.412	66.4164	-77.2691	109.183	43.0177	-101.968	111.162	20.3088	-78.614	141.242	56.3129	-87.4855	126.441	27.1401	-106.474	126.156	4.60412	-72.398	155.468	36.118	-93.4711	139.702	9.78379	-99.9074	139.511	0.333723	-63.1025	169.541	21.6509	-86.7754	151.497	-7.25396	-90.318	147.73	-8.27897	-55.3921	173.688	35.1007	-29.812	173.807	14.9771	-2.85086	140.877	37.866	-10.3785	
33	0.275	94.2125	4.51934	-17.0712	77.7147	3.5395	-50.718	77.5404	8.73035	-87.0979	98.4329	16.7428	-112.072	100.014	56.442	-81.7441	97.0399	33.4335	-102.858	104.044	9.52051	-76.7615	128.475	47.2714	-88.1385	116.849	16.638	-106.225	115.982	-4.23325	-72.5401	142.855	28.2254	-95.9493	132.921	0.161592	-98.0197	134.029	-6.99265	-63.6527	158.135	17.4599	-88.3831	144.213	-12.3781	-88.2912	143.447	-16.5532	-51.9095	159.677	37.0762	-28.945	160.986	19.5777	-1.89579	123.94	32.1753	-6.89819	
34	0.283333	90.1362	-1.84065	-17.5815	72.2364	-7.96214	-50.9848	74.1033	-9.66934	-82.3362	91.0309	-5.40221	-110.974	96.2846	36.9191	-86.7344	88.4391	8.09303	-103.106	95.9496	-7.24001	-74.0649	113.517	28.7723	-96.3345	109.473	-3.97156	-105.077	111.308	-16.3273	-64.5135	133.296	11.7653	-96.1499	126.917	-16.8965	-95.3698	124.728	-15.0073	-55.6894	150.734	1.63152	-88.5508	138.779	-27.8721	-82.1242	136.317	-23.2422	-49.9024	153.286	27.3969	-34.0286	154.935	15.3585	-1.92423	117.925	28.756	-13.5117	
35	0.291667	87.6105	-7.67572	-11.7719	69.3956	-18.1076	-47.8182	66.7294	-26.0476	-80.4365	88.4083	-26.5804	-101.7	85.778	19.5923	-92.0415	86.7515	-8.29325	-101.73	89.5313	-21.3553	-68.4822	110.023	9.04254	-100.001	104.482	-25.7028	-99.1902	109.034	-28.5261	-58.8479	131.165	-7.07712	-95.1576	117.668	-35.4526	-85.7146	122.748	-25.0451	-49.3691	143.653	-16.5998	-88.4482	132.065	-40.6495	-76.3379	132.829	-30.2223	-44.0626	145.984	23.0412	-37.897	152.808	13.6165	-2.42809	117.535	24.9998	-16.0579	
36	0.3	84.8656	-2.63107	-11.2933	66.4542	-20.2246	-36.8827	62.514	-32.188	-75.009	81.202	-39.6903	-94.3546	86.6836	8.90403	-90.5833	76.4353	-20.9933	-94.6916	86.1161	-27.3682	-61.2292	102.194	-3.75208	-96.4015	95.5938	-36.5793	-90.5392	96.723	-31.562	-48.3761	122.208	-21.7001	-90.0418	109.328	-46.8728	-73.587	113.927	-29.0871	-42.6718	140.153	-30.9006	-80.8987	121.577	-53.5313	-59.1111	122.654	-36.9444	-35.8525	145.093	13.409	-41.166	150.983	13.8313	-9.35786	117.931	24.1432	-15.6275	
37	0.308333	85.6615	6.37559	-4.10308	58.7569	-11.1866	-28.6096	51.9576	-31.0754	-63.4374	69.5241	-46	-81.2135	82.7349	3.90694	-85.4003	69.1332	-24.4313	-86.2357	71.4247	-24.66	-48.7262	97.2725	-14.579	-91.4214	82.9948	-43.6867	-77.2218	90.2658	-29.836	-38.791	111.06	-34.2941	-82.361	93.0213	-51.7915	-59.2605	100.722	-31.0356	-33.2926	124.971	-47.3887	-70.6735	105.201	-57.0919	-44.1836	113.246	-33.3323	-23.7058	146.817	4.48143	-41.7572	156.243	7.52721	-12.0051	120.99	25.3974	-23.7907	
38	0.316667	86.131	18.8345	-2.73704	55.4697	1.76901	-23.0436	43.4737	-22.8788	-51.6305	52.4412	-44.6272	-65.0544	75.0558	-1.16915	-83.7606	54.5264	-22.1386	-74.269	64.603	-16.4693	-39.7826	89.4696	-22.3127	-83.9219	64.5845	-40.3125	-66.2091	76.0264	-22.5052	-29.6217	91.9734	-41.7475	-71.588	76.1995	-52.7912	-49.1221	88.5429	-27.8836	-23.3692	108.464	-52.9819	-59.0282	88.8135	-58.1564	-33.2994	99.9434	-34.1577	-14.6964	141.048	-6.79692	-40.5473	152.108	2.1132	-12.1862	125.834	24.2515	-26.2675	
39	0.325	86.5831	30.0043	-3.76166	54.8519	11.9639	-23.1549	39.8248	-13.3139	-42.1884	40.5391	-37.1083	-51.6231	72.1576	3.09126	-77.5158	44.1934	-14.666	-68.6941	55.1885	-7.23086	-33.2279	74.9366	-22.5428	-78.2269	51.668	-35.4086	-52.518	71.1813	-16.2037	-22.6103	78.57	-45.7428	-61.1193	60.7291	-44.524	-36.5344	81.155	-21.3316	-15.4145	90.4271	-52.7343	-49.0423	72.382	-50.065	-19.9753	92.6138	-28.0825	-4.94407	136.467	-17.3916	-39.2767	151.622	-7.01743	-8.4895	126.955	22.041	-28.8262	
40	0.333333	92.4031	36.4315	-8.1964	57.3117	25.4477	-18.0743	33.1932	2.74802	-33.6631	32.438	-23.9971	-42.946	67.0902	4.64092	-75.4886	39.9065	-8.1879	-60.9403	56.4647	3.37185	-27.3844	68.6007	-23.5167	-69.9975	42.1306	-24.8605	-47.2816	65.1582	-6.5084	-16.834	70.5339	-41.725	-51.7224	50.1676	-34.6355	-27.3919	73.8776	-16.2209	-7.32511	77.1266	-53.8546	-37.3693	61.4963	-41.1465	-9.22528	84.9405	-22.8585	3.29887	128.272	-20.4451	-36.9329	149.348	-11.0163	-9.83471	128.303	15.474	-28.3881	
41	0.341667	101.819	41.6783	-11.4449	63.5858	42.5636	-18.9877	36.3046	19.9285	-33.171	25.9421	-7.00047	-39.4869	64.0335	11.8608	-75.3942	35.957	7.49645	-57.4074	53.3505	18.2294	-28.4871	56.9896	-13.292	-66.7151	36.2503	-10.8238	-38.6588	66.7898	4.07285	-14.1454	55.7097	-31.278	-45.8814	41.3626	-18.867	-23.6372	74.3664	-4.68746	-5.54024	66.0827	-44.5214	-31.3798	53.9243	-22.4807	-5.31491	79.6904	-13.6871	5.97071	123.721	-23.9956	-34.5501	141.886	-15.9839	-11.1825	130.141	16.4782	-31.771	
42	0.35	110.559	42.3689	-17.4781	74.8782	50.9629	-24.4155	40.3991	37.3685	-38.1625	24.7975	11.8579	-43.0522	62.8894	13.7169	-76.5988	38.752	18.6614	-61.3666	58.3649	27.9392	-32.6498	53.2795	-6.68032	-65.4849	33.7764	3.67316	-40.7278	65.9985	15.7506	-15.3522	51.6198	-17.0095	-46.8113	39.4309	-2.46377	-21.5721	70.3035	7.94759	-8.69292	55.4918	-33.8637	-29.2423	46.844	-11.9453	-4.68591	79.6707	-4.26362	4.21823	117.008	-26.147	-34.4349	137.565	-22.3072	-11.9325	130.019	10.3778	-37.1983	
